<svg width="106" height="31" viewBox="0 0 106 31" fill="none" xmlns="http://www.w3.org/2000/svg">
<g clip-path="url(#clip0_2_36)">
<path d="M36.8081 27.9321V26.0691L39.2603 26.0263C41.5147 25.9869 41.76 25.9649 42.3007 25.7529C43.3932 25.3247 44.5472 24.0009 44.757 22.9352L44.8217 22.607L44.0578 22.9604C43.6376 23.1548 42.9836 23.3886 42.6043 23.4798C41.6688 23.7051 39.9071 23.6991 38.9823 23.4676C36.4472 22.8329 34.3456 20.8943 33.5276 18.4357C33.0875 17.1132 33.0061 17.201 34.8616 16.9977C35.7375 16.9017 36.5716 16.8007 36.715 16.7733C36.9489 16.7286 36.9892 16.7676 37.1055 17.1582C37.6631 19.0271 39.4523 20.156 41.4156 19.8775C42.3088 19.7509 42.8909 19.4611 43.5863 18.7968C44.2888 18.1258 44.6587 17.4366 44.8052 16.5258C44.8626 16.1686 44.9183 15.8699 44.929 15.862C45.0244 15.7911 48.5624 15.4742 48.5989 15.5333C48.6254 15.5761 48.6306 17.3102 48.6105 19.3868C48.5768 22.8703 48.5572 23.2234 48.3568 23.9518C48.0541 25.052 47.616 25.9229 46.9308 26.7864C45.9786 27.9863 44.739 28.8769 43.3738 29.3419C42.3669 29.6848 41.2837 29.7933 38.8558 29.7943L36.8081 29.7948L36.8081 27.9321ZM6.74802 23.6138C3.0194 23.1743 0 19.8437 0 16.1704V15.3373L0.429766 15.276C1.32531 15.1484 10.7181 14.0991 10.9654 14.0991C11.3132 14.0991 11.2938 14.0027 10.827 13.4113C10.2049 12.6231 9.46057 12.1748 8.44114 11.9741C7.92052 11.8716 7.41006 11.8984 4.7527 12.1673C3.05639 12.339 1.46784 12.5084 1.22258 12.5438C0.815076 12.6024 0.782832 12.5916 0.848285 12.4169C1.18002 11.5316 2.35853 10.1752 3.42759 9.44815C4.78858 8.52261 5.90265 8.19249 7.68521 8.18651C9.2056 8.1808 9.86274 8.33279 11.2245 9.0018C12.0479 9.40635 12.323 9.61245 13.1501 10.4447C14.2319 11.5331 14.7919 12.4656 15.1641 13.7981C15.3978 14.6347 15.5554 16.3644 15.4063 16.4566C15.3547 16.4886 12.8341 16.7962 9.80507 17.1402C6.77599 17.4842 4.28109 17.7813 4.26084 17.8004C4.24058 17.8196 4.32121 17.9927 4.44001 18.1852C4.95214 19.015 6.07724 19.72 7.1143 19.861C7.70944 19.9419 8.32102 19.8981 12.014 19.5103C13.4216 19.3626 14.5982 19.2667 14.6288 19.2973C14.6594 19.3279 14.5226 19.6177 14.3248 19.9412C12.7446 22.5256 9.76567 23.9695 6.74802 23.6138ZM23.2571 23.6202C20.8602 23.324 18.5029 21.6588 17.3996 19.4823C17.2769 19.2402 17.1972 19.0214 17.2225 18.996C17.2479 18.9707 18.1596 18.854 19.2486 18.7367L21.2287 18.5234L21.6618 18.9232C23.3574 20.4882 26.282 20.1602 27.4938 18.2691L27.8067 17.7808L29.8552 17.558C30.9819 17.4355 31.9379 17.3363 31.9796 17.3377C32.0213 17.3395 32.0554 18.7757 32.0554 20.5301V23.7199H30.1847H28.3139V23.163C28.3139 22.8566 28.2899 22.606 28.2605 22.606C28.2311 22.606 27.9376 22.7422 27.6082 22.9087C26.4092 23.5148 24.6855 23.7967 23.2571 23.6202ZM56.4249 23.6208C54.7513 23.4124 53.1704 22.6132 51.9258 21.3463C50.7431 20.1425 50.1362 19.0163 49.8101 17.4205C49.6291 16.5352 49.5996 15.4597 49.7537 15.3643C49.8104 15.3292 52.3359 15.0202 55.3659 14.6776C59.2943 14.2334 60.875 14.0192 60.875 13.9311C60.875 13.6831 59.7418 12.5855 59.2245 12.3325C58.2212 11.8417 57.858 11.8299 54.4294 12.1764C52.7187 12.3493 51.121 12.5179 50.8788 12.551L50.4386 12.6113L50.6135 12.267C51.6495 10.2265 53.7555 8.67767 56.0647 8.25793C59.8676 7.56669 63.6462 9.89181 64.8179 13.6442C65.0502 14.3882 65.2305 16.5311 65.0606 16.5291C64.853 16.5274 53.945 17.7741 53.9108 17.8042C53.8068 17.8958 54.6713 18.8797 55.1355 19.198C56.3211 20.0108 56.7835 20.0391 61.2093 19.5704C62.867 19.3948 64.2652 19.2656 64.3164 19.2831C64.4799 19.339 63.5619 20.6739 62.8934 21.3521C61.1821 23.0884 58.8155 23.9184 56.4249 23.6208ZM16.6126 15.2895C16.6444 14.7186 16.747 14.0009 16.8407 13.6946C17.6271 11.1239 19.8469 8.99441 22.3984 8.36299C23.3606 8.12488 25.2966 8.1279 26.1846 8.36939C26.7055 8.51078 27.5154 8.84518 28.2381 9.21726C28.2798 9.23863 28.314 7.63481 28.314 5.65298V2.04968H30.1847H32.0554V8.32612V14.6026L31.8279 14.651C31.7028 14.6777 30.8951 14.7728 30.033 14.8625C29.171 14.9521 28.4045 15.0337 28.3298 15.0438C28.2503 15.0546 28.1077 14.8308 27.9864 14.5051C27.5697 13.387 26.9854 12.7564 25.887 12.2394C25.304 11.9649 25.127 11.9303 24.3197 11.9328C23.1075 11.9368 22.4553 12.1901 21.6024 12.9891C20.8519 13.6921 20.4417 14.4597 20.3437 15.3448L20.2748 15.9661L18.758 16.1412C17.9237 16.2376 17.0868 16.319 16.898 16.3221L16.5548 16.3285L16.6126 15.2895ZM33.2689 14.3301C33.2689 14.2218 33.3646 13.8411 33.4816 13.4841C34.9564 8.98553 40.0734 6.85485 44.2986 8.98006C44.5817 9.12245 44.8323 9.23894 44.8556 9.23894C44.8788 9.23894 44.8979 8.9873 44.8979 8.67972V8.12048L46.7433 8.14808L48.5888 8.17567L48.6187 10.4673L48.6485 12.7589L48.3153 12.8158C48.132 12.847 47.0643 12.9722 45.9425 13.0939L43.903 13.3151L43.5432 12.9653C41.8594 11.3277 38.8722 11.6348 37.63 13.5732L37.3189 14.0588L35.6225 14.2359C34.6896 14.3333 33.7783 14.4387 33.5976 14.4701C33.3198 14.5185 33.2689 14.4967 33.2689 14.3301Z" fill="#666666"/>
<path d="M104.731 0C104.337 0 104.024 0.123219 103.792 0.369632C103.56 0.616056 103.444 0.92228 103.444 1.28491C103.444 1.64748 103.56 1.95371 103.792 2.20019C104.024 2.4466 104.337 2.56981 104.731 2.56981C105.125 2.56981 105.434 2.4466 105.659 2.20019C105.884 1.95371 106 1.65101 106 1.28491C106 0.918755 105.884 0.616056 105.659 0.369632C105.434 0.123219 105.125 0 104.731 0ZM98.6983 0.135905C97.6704 0.130191 96.4546 0.366446 95.0014 0.83788C92.881 1.52569 88.2535 3.89864 86.9135 4.98527L86.6131 5.22868L88.2556 6.49884L89.8979 7.76919L90.6933 7.3114C94.4674 5.13956 98.641 3.65831 98.9218 4.39102C99.1088 4.87908 97.9503 7.19746 96.5262 9.18509C94.716 11.7118 91.2501 15.3613 88.2059 17.9462C87.3504 18.6726 86.6504 19.343 86.6504 19.436C86.6504 19.529 87.3214 20.083 88.1417 20.6673C88.9618 21.2515 89.7122 21.7309 89.8092 21.7328C90.0804 21.7385 92.598 19.5093 94.7476 17.362C98.6935 13.4203 101.518 9.50913 102.565 6.53675C102.723 6.08745 102.877 5.24268 102.917 4.59869C103.015 3.04853 102.757 2.27246 101.837 1.35121C101.031 0.544292 100.02 0.141876 98.6983 0.135905ZM72.1406 0.158652C69.6346 0.196248 68.0116 1.5325 67.8571 3.89168C67.7535 5.47217 68.2339 6.99746 69.5714 9.33526C70.2838 10.5803 72.0509 13.0256 72.9687 14.0364L73.5112 14.6338L74.8384 13.2399C75.5684 12.4733 76.1688 11.7985 76.1722 11.7402C76.1779 11.6818 75.7897 11.1517 75.3146 10.5624C73.2606 8.01484 71.5816 4.92135 71.9388 4.34258C72.0964 4.08717 73.2794 4.25397 74.7056 4.73246C78.456 5.99074 84.0199 9.57404 89.0313 13.959L89.8881 14.7086L91.2847 13.3017L92.6816 11.8948L91.7537 11.0224C91.2433 10.5426 90.0706 9.54376 89.1476 8.8024C83.9452 4.62405 78.8673 1.68387 74.9192 0.564239C73.9094 0.277875 72.9759 0.146133 72.1406 0.158652ZM104.731 0.288113C105.023 0.288113 105.255 0.383325 105.423 0.569932C105.592 0.76007 105.677 0.995842 105.677 1.28455C105.677 1.57319 105.592 1.80902 105.423 1.99563C105.255 2.18571 105.023 2.27739 104.731 2.27739C104.436 2.27739 104.204 2.18571 104.028 1.99563C103.852 1.8055 103.768 1.56966 103.768 1.28455C103.768 0.999316 103.852 0.76354 104.028 0.573402C104.204 0.383321 104.436 0.288113 104.731 0.288113ZM104.784 0.598102C104.58 0.598102 104.411 0.661407 104.278 0.78807C104.144 0.914808 104.077 1.0803 104.077 1.28455C104.077 1.49221 104.144 1.6577 104.278 1.78091C104.411 1.90411 104.58 1.96387 104.784 1.96387C104.967 1.96387 105.135 1.89363 105.287 1.74574L105.086 1.55208C104.995 1.64006 104.893 1.68234 104.784 1.68234C104.664 1.68234 104.566 1.64703 104.485 1.5733C104.404 1.50281 104.366 1.40422 104.366 1.28455C104.366 1.16128 104.404 1.06271 104.485 0.988728C104.566 0.914809 104.664 0.876163 104.784 0.876163C104.896 0.876163 104.995 0.91833 105.083 0.99926L105.283 0.812761C105.139 0.671974 104.974 0.598102 104.784 0.598102ZM80.9697 9.38778L79.933 10.2188C78.3995 11.4478 73.8891 16.0007 72.4689 17.7533C70.361 20.3545 68.9223 22.6912 68.2187 24.6558C67.7773 25.8882 67.7601 28.0559 68.1857 28.8521C68.59 29.6089 69.7189 30.589 70.4605 30.8274C71.4272 31.138 73.6941 31.0154 75.1847 30.5719C76.6284 30.1422 78.9993 29.112 80.6194 28.2107C82.2571 27.2995 84.1323 26.1139 84.1323 25.9897C84.1323 25.9075 82.6621 24.7651 81.0752 23.6143C80.8594 23.4578 80.7334 23.4926 80.0614 23.8937C77.6951 25.3063 75.4795 26.3086 73.6686 26.7855C71.9597 27.2357 71.7155 27.1287 72.0298 26.0678C72.4295 24.7186 73.3426 23.2039 75.198 20.8119C76.5794 19.031 80.5223 14.998 82.6078 13.2327C83.4097 12.5539 84.0861 11.9149 84.1107 11.8127C84.1613 11.601 84.1436 11.5862 82.3192 10.3222L80.9697 9.38778ZM80.8885 16.5607C80.7488 16.555 78.167 19.2021 78.167 19.3491C78.167 19.6202 82.8983 23.4726 85.2091 25.0827C89.4315 28.0252 93.0104 29.8684 96.1282 30.7064C97.0976 30.967 97.582 31.0205 98.7131 30.9922C99.9268 30.9621 100.202 30.9101 100.862 30.5866C103.227 29.4272 103.619 26.4973 101.874 23.0197C100.981 21.2401 99.9274 19.7336 97.5719 16.8689C97.4909 16.7705 97.3725 16.6898 97.309 16.6898C97.1401 16.6898 94.604 19.2473 94.604 19.4176C94.604 19.4968 95.0319 20.0954 95.5552 20.7476C97.5739 23.2637 99.1554 26.1619 98.889 26.8571C98.694 27.3661 95.9941 26.6177 93.4772 25.357C89.7999 23.515 86.0728 20.9664 82.4751 17.834C81.6732 17.1357 80.9592 16.5626 80.8885 16.5607Z" fill="#3846F0"/>
</g>
<defs>
<clipPath id="clip0_2_36">
<rect width="106" height="31" fill="white"/>
</clipPath>
</defs>
</svg>
