<svg width="16" height="13" viewBox="0 0 16 13" fill="none" xmlns="http://www.w3.org/2000/svg">
<g clip-path="url(#clip0_6_83)">
<path d="M1.76412 12.9552C0.910566 12.7839 0.22978 12.0893 0.0645953 11.2212C0.0273657 11.0256 0 9.63148 0 7.93053C0 4.68983 0.0061467 4.63322 0.378813 4.44115C0.62683 4.31332 0.857042 4.31332 1.10506 4.44115C1.47905 4.63391 1.48387 4.67977 1.48387 8.04219V11.1051L1.70323 11.3237L1.92258 11.5423H8H14.0774L14.2968 11.3237L14.5161 11.1051V8.04219C14.5161 4.67977 14.521 4.63391 14.8949 4.44115C15.143 4.31332 15.3732 4.31332 15.6212 4.44115C15.9939 4.63322 16 4.68983 16 7.93053C16 9.63148 15.9726 11.0256 15.9354 11.2212C15.7982 11.9421 15.36 12.4894 14.6565 12.8181L14.2903 12.9891L8.16129 12.9991C4.79033 13.0046 1.91159 12.9849 1.76412 12.9552ZM7.65647 7.83777C7.55623 7.78362 6.9901 7.39926 6.3984 6.98364C5.8067 6.56802 4.1652 5.42265 2.75062 4.43837C-0.148995 2.42078 -0.0732089 2.49432 0.0520081 1.81962C0.190073 1.07569 0.592714 0.54673 1.27623 0.211349L1.70697 0H7.99865H14.2903L14.6529 0.169451C15.3591 0.499486 15.8125 1.07948 15.9434 1.82034C16.066 2.51371 16.259 2.34079 12.1915 5.18087C10.1944 6.57537 8.47056 7.76574 8.36082 7.82614C8.11367 7.96219 7.89352 7.96583 7.65647 7.83777ZM11.0165 4.23528C12.6752 3.08109 14.1311 2.06345 14.2519 1.97387L14.4714 1.81101L14.267 1.62891L14.0625 1.44681H8H1.93752L1.73282 1.62911L1.52811 1.8114L2.03825 2.17391C2.78761 2.7064 7.96492 6.32499 7.98423 6.32975C7.9933 6.33193 9.35782 5.38947 11.0165 4.23528Z" fill="#767676"/>
</g>
<defs>
<clipPath id="clip0_6_83">
<rect width="16" height="13" fill="white"/>
</clipPath>
</defs>
</svg>
