<svg width="15" height="12" viewBox="0 0 15 12" fill="none" xmlns="http://www.w3.org/2000/svg">
<g clip-path="url(#clip0_6_89)">
<path d="M1.65386 11.9587C0.853656 11.8006 0.215419 11.1594 0.0605581 10.358C0.0256553 10.1774 0 8.89059 0 7.32049C0 4.32908 0.00576253 4.27682 0.355137 4.09952C0.587654 3.98153 0.803477 3.98153 1.036 4.09952C1.38661 4.27745 1.39113 4.31979 1.39113 7.42356V10.2508L1.59677 10.4526L1.80242 10.6544H7.5H13.1976L13.4032 10.4526L13.6089 10.2508V7.42356C13.6089 4.31979 13.6134 4.27745 13.964 4.09952C14.1965 3.98153 14.4123 3.98153 14.6449 4.09952C14.9942 4.27682 15 4.32908 15 7.32049C15 8.89059 14.9743 10.1774 14.9394 10.358C14.8108 11.0235 14.4 11.5286 13.7404 11.832L13.3972 11.99L7.65121 11.9992C4.49093 12.0042 1.79212 11.986 1.65386 11.9587ZM7.17794 7.23486C7.08397 7.18488 6.55322 6.83009 5.9985 6.44644C5.44378 6.06279 3.90488 5.00552 2.57871 4.09696C-0.139683 2.23457 -0.0686333 2.30245 0.0487576 1.67965C0.178193 0.99294 0.55567 0.504674 1.19647 0.195091L1.60028 0H7.49873H13.3972L13.7371 0.156417C14.3992 0.461064 14.8242 0.996445 14.947 1.68031C15.0618 2.32035 15.2428 2.16073 11.4296 4.78234C9.55724 6.06957 7.94115 7.16837 7.83827 7.22413C7.60656 7.34972 7.40017 7.35308 7.17794 7.23486ZM10.328 3.90949C11.883 2.84408 13.2479 1.90473 13.3611 1.82204L13.567 1.6717L13.3753 1.50361L13.1836 1.33551H7.5H1.81643L1.62452 1.50379L1.43261 1.67206L1.91086 2.00668C2.61338 2.49821 7.46711 5.83845 7.48522 5.84284C7.49372 5.84486 8.77295 4.97489 10.328 3.90949Z" fill="#767676"/>
</g>
<defs>
<clipPath id="clip0_6_89">
<rect width="15" height="12" fill="white"/>
</clipPath>
</defs>
</svg>
