<svg width="405" height="22" viewBox="0 0 405 22" fill="none" xmlns="http://www.w3.org/2000/svg">
<g clip-path="url(#clip0_6_65)">
<path d="M289.39 21.5355C287.894 21.222 286.544 20.2112 285.866 18.8965L285.681 18.537L286.5 18.2054C286.95 18.023 287.411 17.8359 287.524 17.7897L287.729 17.7056L287.852 17.946C288.428 19.0714 289.645 19.7139 290.909 19.5591C292.158 19.4061 292.946 18.7432 293.282 17.5646C293.378 17.226 293.471 15.6353 293.395 15.6353C293.372 15.6353 293.21 15.7647 293.035 15.9229C292.367 16.5273 291.459 16.8513 290.44 16.8498C289.09 16.8482 287.847 16.3288 286.858 15.3535C286.371 14.8729 286.124 14.5438 285.843 14.0019C284.432 11.2782 285.602 7.97619 288.426 6.70708C289.206 6.35696 289.497 6.29797 290.44 6.30001C291.208 6.30162 291.312 6.31409 291.722 6.45365C292.291 6.64745 292.675 6.8632 293.053 7.20034C293.218 7.34787 293.369 7.46859 293.388 7.46859C293.406 7.46859 293.422 7.27258 293.422 7.03302V6.59746H294.536H295.651L295.651 11.62C295.651 14.9473 295.63 16.8079 295.589 17.1325C295.226 20.0255 293.389 21.6381 290.475 21.6197C290.085 21.6171 289.601 21.5797 289.39 21.5355ZM291.203 14.7584C292.525 14.4893 293.478 13.2964 293.573 11.795C293.63 10.89 293.301 9.87038 292.754 9.25555C291.857 8.24613 290.252 8.0367 289.074 8.7752C288.458 9.16125 287.911 9.93527 287.708 10.708C287.595 11.1355 287.596 12.0269 287.709 12.4503C288.14 14.0656 289.664 15.072 291.203 14.7584ZM251.988 16.8295C250.143 16.6698 248.271 15.8402 246.89 14.5703C245.575 13.361 244.747 11.9205 244.362 10.1716C244.199 9.42908 244.186 7.9054 244.337 7.1711C244.729 5.25715 245.756 3.55614 247.258 2.3347C248.662 1.19251 250.409 0.503248 252.162 0.39974C254.566 0.257775 256.489 0.882361 258.286 2.38852L258.558 2.6168L257.754 3.40576L256.95 4.19474L256.698 3.97764C255.241 2.72503 253.027 2.26643 251.088 2.81542C248.903 3.43402 247.293 5.14369 246.811 7.35969C246.663 8.03814 246.654 9.15594 246.792 9.7986C247.471 12.9609 250.308 14.9741 253.563 14.6042C254.868 14.456 255.895 14.0168 256.795 13.2219C257.271 12.8017 257.508 12.4983 257.782 11.9603C258.014 11.5024 258.307 10.5578 258.307 10.2655V10.1364H255.548H252.789V9.04747V7.95858H256.665C260.303 7.95858 260.543 7.96442 260.58 8.05387C260.602 8.10628 260.62 8.66363 260.619 9.29247C260.618 10.1736 260.595 10.5477 260.517 10.9238C260.135 12.7831 259.274 14.1804 257.833 15.281C256.639 16.1932 255.286 16.6881 253.597 16.8301C252.86 16.8921 252.711 16.8921 251.988 16.8295ZM266.305 16.8306C265.772 16.7496 265.029 16.5239 264.592 16.3099C263.101 15.5812 262.04 14.2084 261.733 12.612C261.603 11.9387 261.644 10.7249 261.816 10.1105C262.358 8.17881 263.94 6.7564 266 6.3488C266.693 6.21157 267.977 6.26137 268.618 6.45041C269.562 6.72838 270.225 7.09509 270.89 7.70823C271.518 8.28674 271.959 8.96474 272.245 9.79297C272.475 10.4585 272.539 10.9487 272.505 11.8077C272.451 13.2157 271.997 14.2876 271.049 15.2462C270.264 16.0399 269.377 16.5202 268.256 16.7575C267.772 16.86 266.751 16.8983 266.305 16.8306ZM267.559 14.7626C268.68 14.5927 269.688 13.6852 270.036 12.5317C270.369 11.4276 270.045 10.0337 269.278 9.27095C268.686 8.68168 268.083 8.4022 267.297 8.35302C265.704 8.25328 264.394 9.28018 264.069 10.8831C263.969 11.3776 263.997 12.0716 264.136 12.5317C264.498 13.732 265.491 14.5959 266.723 14.7824C266.987 14.8224 267.198 14.8174 267.559 14.7626ZM278.177 16.8285C275.834 16.5171 274.01 14.8695 273.549 12.646C273.417 12.0097 273.459 10.7263 273.632 10.1105C273.942 9.01019 274.621 8.02028 275.529 7.34693C275.993 7.00242 276.88 6.58076 277.453 6.43249C278.029 6.28319 279.152 6.22949 279.75 6.32262C281.798 6.64165 283.418 7.96178 284.047 9.82358C284.987 12.6071 283.562 15.5739 280.826 16.5305C280.006 16.8172 278.97 16.9338 278.177 16.8285ZM279.623 14.7103C280.185 14.57 280.606 14.3329 281.02 13.9233C282.038 12.917 282.273 11.3327 281.603 9.99055C281.222 9.22682 280.49 8.62877 279.684 8.42389C279.25 8.3135 278.477 8.3151 278.09 8.4271C276.965 8.75342 276.151 9.61997 275.889 10.7702C275.817 11.0837 275.801 11.3301 275.824 11.764C275.869 12.6149 276.125 13.2446 276.656 13.813C277.441 14.6547 278.529 14.9836 279.623 14.7103ZM305.085 16.8329C303.883 16.6675 302.838 16.1635 302.016 15.353C301.293 14.6408 300.857 13.8791 300.599 12.875C300.497 12.4796 300.476 12.2428 300.476 11.5245C300.476 10.8061 300.498 10.5692 300.599 10.1738C301.115 8.16762 302.567 6.75437 304.528 6.34868C305.121 6.22589 306.158 6.23928 306.715 6.37695C308.27 6.76161 309.473 7.86686 310.208 9.58662C310.355 9.93001 310.469 10.2159 310.462 10.222C310.451 10.2315 306.764 11.7257 304.081 12.808C303.614 12.9966 303.231 13.1803 303.231 13.2162C303.231 13.2521 303.335 13.4335 303.462 13.6192C304.47 15.0933 306.794 15.2108 308.088 13.8532C308.224 13.7103 308.377 13.5341 308.429 13.4616L308.522 13.3299L309.395 13.8972C309.876 14.2092 310.295 14.4809 310.327 14.5009C310.412 14.5535 309.806 15.2565 309.367 15.6147C308.671 16.1841 307.855 16.5786 307.009 16.7549C306.511 16.8587 305.554 16.8975 305.085 16.8329ZM305.234 10.4278C306.539 9.89947 307.626 9.45108 307.649 9.43135C307.727 9.36465 307.368 8.89725 307.102 8.71819C306.056 8.0153 304.656 8.19264 303.68 9.15191C303.255 9.56916 302.989 10.0437 302.869 10.5989C302.783 11.0025 302.76 11.3883 302.823 11.3883C302.844 11.3883 303.929 10.9561 305.234 10.4278ZM297.1 8.74667V0.932749L298.257 0.947471L299.413 0.962192L299.427 8.76139L299.442 16.5606H298.271H297.1L297.1 8.74667Z" fill="#7C7C7C"/>
<path d="M199.846 17.4134C198.119 17.1897 196.667 16.2146 196.188 14.9569C196.009 14.4871 195.999 13.1487 196.17 12.5354C196.724 10.5499 197.928 8.48016 199.992 5.96626C200.321 5.56557 200.601 5.24829 200.614 5.26119C200.627 5.27409 200.556 5.46287 200.455 5.68069C199.695 7.32933 199.554 8.9127 200.066 10.0431C200.667 11.3707 202.337 12.1313 204.205 11.9282C204.565 11.8891 205.357 11.7225 206.015 11.5475C206.659 11.3764 207.442 11.1682 207.755 11.0848C208.707 10.8312 211.953 9.97432 213.829 9.481C214.804 9.22485 215.743 8.97586 215.917 8.92768C216.091 8.8795 216.504 8.76884 216.835 8.68176C217.165 8.59469 218.589 8.21802 219.998 7.84472C221.408 7.47142 223.415 6.94056 224.459 6.66503C225.503 6.38951 226.614 6.09597 226.927 6.01273C227.24 5.9295 228.351 5.63558 229.395 5.35957C230.439 5.08355 231.577 4.78148 231.925 4.68828C232.514 4.53062 232.716 4.51281 232.716 4.6186C232.716 4.68372 232.317 4.86258 229.774 5.93708C228.487 6.48113 226.679 7.24583 225.756 7.63642C206.863 15.6382 204.432 16.6446 203.041 17.0387C201.832 17.3813 200.66 17.5188 199.846 17.4134Z" fill="#7C7C7C"/>
<path d="M109.64 18.6485C109.61 18.6458 109.516 18.637 109.431 18.6291C108.835 18.5744 108.284 18.4399 107.757 18.2202C106.781 17.814 106.001 17.1858 105.431 16.3481C105.349 16.2266 105.322 16.1851 105.232 16.0315C105.215 16.0025 105.154 15.8871 105.096 15.7749C104.771 15.1387 104.59 14.4946 104.527 13.7526C104.507 13.5151 104.518 12.8643 104.546 12.6633C104.657 11.8636 104.875 11.2323 105.266 10.5779C105.913 9.49196 106.926 8.67496 108.162 8.24155C109.233 7.86582 110.558 7.85381 111.7 8.20948C112.538 8.47005 113.332 8.96435 113.89 9.57218C114.663 10.4136 115.126 11.3923 115.275 12.5002C115.321 12.8337 115.33 13.042 115.33 13.6599L115.331 14.2487H111.229C108.973 14.2487 107.128 14.2514 107.128 14.2547C107.128 14.2775 107.242 14.6052 107.282 14.6961C107.432 15.037 107.603 15.2827 107.874 15.5447C108.416 16.0677 109.178 16.3221 110.129 16.2975C110.514 16.2875 110.782 16.2417 111.155 16.122C111.684 15.9522 112.248 15.6128 112.594 15.2564L112.692 15.1547L112.742 15.1913C112.784 15.2223 113.022 15.401 113.344 15.6433C113.44 15.7155 113.584 15.8236 113.835 16.0118C113.936 16.0878 114.165 16.2595 114.343 16.3933L114.667 16.6367L114.626 16.6874C114.546 16.786 114.163 17.153 113.997 17.2898C113.24 17.9133 112.402 18.3148 111.435 18.5165C111.225 18.5604 110.964 18.5996 110.677 18.6306C110.545 18.6448 109.746 18.6586 109.64 18.6485ZM112.685 12.239C112.655 11.8899 112.459 11.4927 112.151 11.1574C111.712 10.6779 111.083 10.3761 110.34 10.2879C110.171 10.2678 109.665 10.2677 109.505 10.2878C108.776 10.3791 108.187 10.6512 107.747 11.0993C107.414 11.4391 107.186 11.8778 107.159 12.2324L107.151 12.3409H109.922H112.694L112.685 12.239ZM102.77 18.5371C101.697 18.4754 100.959 18.2891 100.41 17.941C99.8347 17.5761 99.4477 17.0186 99.243 16.2599C99.1472 15.9048 99.0687 15.3854 99.0329 14.8698C99.0237 14.7362 99.019 12.9006 99.0189 9.40959L99.0188 4.15061H100.386H101.754L101.753 6.15378L101.753 8.15695H102.75H103.747V9.3147V10.4724L102.753 10.4757L101.76 10.4789L101.758 12.3472C101.757 13.3748 101.761 14.3222 101.767 14.4525C101.791 14.9669 101.841 15.2414 101.95 15.4583C102.069 15.6937 102.264 15.8418 102.565 15.9253C102.762 15.9799 103.194 16.0246 103.525 16.0246C103.624 16.0246 103.714 16.0284 103.725 16.0326C103.745 16.0398 103.747 16.1633 103.747 17.2957V18.5508L103.346 18.5486C103.126 18.5476 102.866 18.5426 102.77 18.5371ZM121.594 18.5376C121.109 18.4818 120.724 18.0817 120.695 17.603C120.668 17.1396 120.957 16.7291 121.415 16.5825C121.522 16.5483 121.551 16.5447 121.715 16.5451C121.883 16.5454 121.906 16.5483 122.015 16.5862C122.336 16.6974 122.568 16.9264 122.68 17.242C122.714 17.3378 122.718 17.3644 122.718 17.538C122.718 17.7189 122.716 17.735 122.676 17.8482C122.604 18.0489 122.508 18.1851 122.344 18.3188C122.138 18.4865 121.859 18.568 121.594 18.5376ZM121.894 18.3457C122.253 18.2674 122.52 17.955 122.546 17.5841C122.568 17.2675 122.372 16.9404 122.079 16.8044C121.935 16.7378 121.845 16.7166 121.708 16.7172C121.388 16.7183 121.107 16.8905 120.962 17.1738C120.646 17.7947 121.204 18.4966 121.894 18.3457ZM121.324 17.5301V16.9565L121.617 16.9613C121.887 16.9662 121.916 16.9688 121.979 16.9964C122.108 17.0526 122.173 17.1528 122.173 17.2968C122.173 17.4153 122.15 17.4783 122.085 17.5366C122.053 17.5654 122.001 17.5959 121.969 17.605C121.937 17.6141 121.908 17.6229 121.906 17.6245C121.902 17.6272 122.069 17.9005 122.168 18.0538L122.2 18.1035H122.087H121.975L121.835 17.8766L121.695 17.6496L121.611 17.6459L121.527 17.6421V17.873V18.1039H121.426H121.324L121.324 17.5301ZM121.899 17.425C121.92 17.4097 121.945 17.3732 121.955 17.343C121.971 17.2944 121.971 17.283 121.949 17.2389C121.91 17.1618 121.858 17.1433 121.678 17.1433L121.526 17.1433V17.3025V17.4618L121.694 17.457C121.838 17.4532 121.867 17.4487 121.899 17.425ZM82.7747 13.3014V8.15695H84.1486H85.5225V13.3014V18.4458H84.1486H82.7747V13.3014ZM87.1253 13.3014V8.15695H88.4789H89.8325L89.8358 8.89492L89.8391 9.63288L89.9626 9.47712C90.2588 9.10349 90.5498 8.83427 90.9166 8.59454C91.7489 8.05061 92.7152 7.85563 93.8934 7.99392C94.9382 8.11656 95.813 8.55273 96.4371 9.26215C96.5817 9.42653 96.61 9.46335 96.7365 9.65053C97.0651 10.1369 97.2987 10.7557 97.4142 11.4462C97.5066 11.9984 97.5019 11.8018 97.5066 15.2914L97.511 18.4458H96.1232H94.7354L94.735 15.6335C94.7349 13.9691 94.7295 12.754 94.7218 12.6567C94.6731 12.0342 94.5165 11.5389 94.246 11.1508C94.1448 11.0056 93.9026 10.7655 93.7652 10.6741C93.3854 10.4215 92.9169 10.2981 92.3378 10.2981C91.6566 10.2981 91.0747 10.5405 90.5971 11.0233C90.2646 11.3595 90.0617 11.7838 89.9388 12.4001C89.9179 12.5045 89.8886 12.7526 89.8734 12.9527C89.8645 13.071 89.8595 14.0866 89.8594 15.7914L89.8594 18.4458H88.4922H87.125L87.1253 13.3014ZM116.762 10.8969L116.765 3.34802H118.139H119.513L119.516 10.8969L119.519 18.4458H118.139H116.758L116.762 10.8969ZM82.6938 4.99267V3.5651H84.1418H85.5898V4.99267V6.42022H84.1418H82.6938V4.99267Z" fill="#7C7C7C"/>
<path d="M14.9164 18.6284C13.7707 18.3675 13.1089 18.0059 12.3806 17.2425C11.3976 16.2125 10.9751 14.9823 10.9744 13.1486C10.9741 12.3704 11.0093 12.0532 11.1593 11.4798C11.6783 9.49614 12.9752 8.19359 14.9164 7.70618C15.7087 7.50722 17.0848 7.50974 17.8902 7.71163C20.4227 8.34638 21.8874 10.7676 21.57 13.7942C21.3274 16.1078 20.0004 17.8434 17.9869 18.4809C17.4777 18.6421 17.2051 18.6785 16.3541 18.6988C15.7027 18.7143 15.1817 18.6888 14.9164 18.6284ZM16.7439 17.9143C17.2452 17.7783 17.7503 17.0924 17.9705 16.2487C18.3013 14.9809 18.332 12.0618 18.029 10.6864C17.7754 9.53508 17.2247 8.61091 16.6551 8.38042C16.3511 8.25741 15.7124 8.3242 15.4593 8.50546C14.9261 8.88731 14.545 9.82327 14.3763 11.165C14.3281 11.5492 14.3093 12.4877 14.3307 13.4443C14.363 14.8852 14.3893 15.1526 14.5618 15.7914C14.8637 16.9096 15.2823 17.5801 15.8622 17.8741C16.1264 18.008 16.3593 18.0187 16.7439 17.9143ZM33.3693 18.5826C32.8432 18.5055 32.2368 18.3989 32.0217 18.3456L31.6306 18.2488L31.6161 11.966C31.6024 6.06181 31.5932 5.66211 31.4624 5.33312C31.2889 4.89677 31.0007 4.65463 30.508 4.53127C30.1887 4.45135 30.126 4.40785 30.126 4.26626C30.126 4.15113 30.1806 4.08464 30.2963 4.05877C30.6475 3.98021 34.5565 3.2812 34.6452 3.28108C34.7166 3.28099 34.7339 3.84212 34.7209 5.73864C34.7014 8.58702 34.5813 8.31471 35.6878 7.93105C36.2815 7.72518 36.4658 7.69501 37.1255 7.6957C38.0833 7.69677 38.6794 7.87394 39.4095 8.37478C40.0051 8.7833 40.5131 9.38929 40.8582 10.1029C41.2625 10.9387 41.3408 11.2966 41.3792 12.4834C41.4091 13.4087 41.3894 13.7134 41.2601 14.3248C40.8122 16.4436 39.4414 17.9267 37.3903 18.5116C36.5745 18.7443 34.6985 18.7774 33.3693 18.5826ZM36.0429 17.8292C36.7953 17.6091 37.5036 16.5417 37.849 15.1074C38.0556 14.2499 38.1348 12.5009 38.002 11.7335C37.8101 10.6249 37.3636 9.66824 36.8589 9.2839C36.4168 8.94717 36.1786 8.87957 35.558 8.91467C35.2309 8.93319 34.9221 8.98873 34.8716 9.03814C34.751 9.15612 34.7738 17.5503 34.8953 17.772C34.9577 17.886 35.055 17.9162 35.3601 17.9162C35.5723 17.9162 35.8796 17.877 36.0429 17.8292ZM46.5843 18.6198C45.4566 18.3639 44.6845 17.9388 43.9201 17.1527C42.9134 16.1175 42.4599 14.8981 42.4608 13.2292C42.4613 12.184 42.5992 11.4328 42.9412 10.6106C43.5356 9.18177 44.9912 7.9753 46.4886 7.67031C47.2129 7.52279 48.5121 7.53032 49.0436 7.6851C50.7037 8.16853 51.7404 9.49329 52.0332 11.5056C52.0937 11.9215 52.1439 12.3362 52.1447 12.4272L52.146 12.5927L48.8733 12.612L45.6006 12.6313L45.6248 13.1856C45.6545 13.8637 45.8679 14.7939 46.1234 15.3581C46.38 15.9248 47.0749 16.5978 47.6965 16.8815C48.7645 17.3689 50.0562 17.3433 51.1185 16.8136C51.5724 16.5873 51.7424 16.5345 51.8185 16.5962C51.9942 16.7387 51.9301 16.8717 51.4762 17.3069C50.9244 17.8359 50.2449 18.2321 49.4597 18.4829C48.7152 18.7207 47.3212 18.787 46.5843 18.6198ZM47.6695 11.7327L48.8166 11.6842V11.1013C48.8166 10.4319 48.6465 9.53849 48.4216 9.02615C47.9044 7.84803 46.7314 8.16 46.1626 9.62695C45.9854 10.0839 45.7167 11.2555 45.7151 11.5779C45.7141 11.7744 45.7275 11.7812 46.1182 11.7812C46.3405 11.7812 47.0386 11.7594 47.6695 11.7327ZM55.2863 18.6768C54.8705 18.6214 53.3405 18.2753 53.1642 18.1969C53.0105 18.1285 52.9848 18.0501 52.9417 17.5189C52.9149 17.1886 52.9037 16.4859 52.9168 15.9574L52.9406 14.9965L53.1297 14.9758C53.3002 14.9572 53.3543 15.0269 53.676 15.678C54.4166 17.1773 55.2055 17.7708 56.4523 17.7667C57.2504 17.7641 57.6904 17.5045 58.05 16.824C58.1848 16.5688 58.2111 16.4174 58.1864 16.038C58.1295 15.1649 57.7281 14.8225 55.9097 14.0962C54.651 13.5934 54.3952 13.4454 53.9001 12.9341C53.2825 12.2962 53.1676 11.9879 53.1676 10.9681C53.1676 10.166 53.1812 10.0901 53.4086 9.62117C53.8611 8.68801 54.6626 8.05892 55.8387 7.71361C56.3406 7.56626 56.5099 7.55462 57.6926 7.58617C58.8253 7.61636 59.0825 7.64682 59.6752 7.82078C60.0498 7.93071 60.3886 8.05186 60.4281 8.08996C60.4676 8.12808 60.5143 8.75754 60.532 9.48879L60.5641 10.8183L60.3845 10.8859C60.1526 10.9732 60.0959 10.9105 59.8233 10.2659C59.3468 9.13909 58.6765 8.47296 57.8507 8.30549C56.8242 8.09732 55.9977 8.64534 55.8809 9.61162C55.7686 10.5408 56.2049 11.0163 57.8834 11.7944C59.8295 12.6966 60.1498 12.8941 60.5981 13.4683C61.2469 14.2992 61.2634 15.7751 60.6365 16.9065C60.376 17.3766 59.7116 17.963 59.1455 18.2222C58.3303 18.5956 57.6116 18.7306 56.5039 18.7182C55.9591 18.7121 55.4112 18.6935 55.2863 18.6768ZM0.0234678 18.1957C0.0446247 17.9835 0.0798895 17.9513 0.349859 17.8971C1.47178 17.6721 1.78508 17.4003 2.03147 16.4379C2.20696 15.7524 2.32514 10.4573 2.21955 8.01153C2.10541 5.36802 1.97999 4.83723 1.37299 4.42881C1.21647 4.32349 0.906081 4.21831 0.6206 4.17384C0.0558373 4.08587 -0.0112518 4.03869 0.0223471 3.75316L0.0471781 3.54213L6.16468 3.54053C9.52931 3.53946 12.294 3.55792 12.3086 3.58084C12.3231 3.60375 12.359 4.53861 12.3884 5.6583L12.4418 7.69408L12.2224 7.74532C12.1018 7.77354 11.9465 7.81291 11.8775 7.83288C11.785 7.8596 11.7277 7.79524 11.6602 7.58914C11.6098 7.43512 11.4222 7.00974 11.2432 6.64387C10.8005 5.73861 10.3072 5.21303 9.56279 4.85341L8.98491 4.57424L7.34503 4.55186L5.70516 4.52948L5.65923 4.88449C5.63396 5.07975 5.58993 6.46513 5.56136 7.96309L5.5094 10.6866L6.44827 10.636C7.60934 10.5734 7.88257 10.5077 8.2336 10.2072C8.52336 9.95909 8.88841 9.27063 8.97826 8.80281C9.02825 8.54246 9.04563 8.52874 9.32516 8.52874H9.61942V11.0463V13.5639L9.33936 13.541C9.06748 13.5187 9.0554 13.5051 8.92565 13.0746C8.72817 12.4192 8.35316 11.852 7.98699 11.6548C7.72562 11.514 7.51579 11.4812 6.60601 11.4387L5.53323 11.3887L5.53597 12.2686C5.53981 13.563 5.6664 15.8174 5.76417 16.3268C5.81098 16.5708 5.93995 16.9339 6.05078 17.1337C6.28293 17.5524 6.54866 17.697 7.3874 17.8609C7.90082 17.9613 7.91782 17.9717 7.9408 18.1989L7.96454 18.4334H3.98227H0L0.0234678 18.1957ZM21.7408 18.1989C21.7632 17.9774 21.7898 17.9585 22.2121 17.8652C23.0189 17.687 23.1432 17.4495 23.2409 15.8997C23.3327 14.4431 23.332 11.4294 23.2398 10.5019C23.1211 9.30984 22.8939 8.9972 22.0484 8.86286C21.7764 8.81965 21.7268 8.78506 21.7268 8.63846C21.7268 8.43437 21.7013 8.44326 22.9754 8.2033C23.5164 8.10141 24.4526 7.91684 25.0558 7.79313C25.659 7.66942 26.2038 7.56815 26.2665 7.5681C26.3643 7.568 26.3771 7.73261 26.3562 8.72143C26.3411 9.43495 26.3589 9.85836 26.4035 9.83159C26.4429 9.80782 26.615 9.55837 26.786 9.27731C27.1903 8.61248 27.9588 7.92064 28.5267 7.71018C29.2689 7.43513 30.2031 7.4454 30.6015 7.73299C30.7216 7.81975 30.6965 7.91685 30.2713 9.00953C30.0182 9.65998 29.7765 10.2837 29.7343 10.3955C29.6919 10.5072 29.6496 10.5987 29.64 10.5987C29.6305 10.5987 29.4039 10.5114 29.1366 10.4046C28.7915 10.2668 28.4605 10.1996 27.9949 10.173C27.38 10.1378 27.3083 10.1496 26.841 10.3632L26.3427 10.5909L26.3443 13.459C26.3465 17.5916 26.3978 17.7595 27.7089 17.9007C28.1914 17.9527 28.1972 17.956 28.2207 18.1935L28.2444 18.4337H24.981H21.7176L21.7408 18.1989Z" fill="#4344F4"/>
<path d="M404.077 0C403.79 0 403.563 0.0871235 403.394 0.262256C403.226 0.437732 403.141 0.654488 403.141 0.911713C403.141 1.16911 403.227 1.38632 403.394 1.56115C403.562 1.73663 403.79 1.82346 404.077 1.82346C404.363 1.82346 404.588 1.73783 404.752 1.56115C404.916 1.38567 405 1.17174 405 0.911713C405 0.652036 404.914 0.437132 404.752 0.262256C404.588 0.0868183 404.363 0 404.077 0ZM399.688 0.0962691C398.941 0.0962691 398.056 0.26059 396.999 0.594591C395.457 1.08247 392.09 2.76637 391.116 3.53715L390.897 3.71079L392.092 4.61198L393.287 5.51333L393.865 5.18851C396.611 3.64749 399.647 2.59638 399.851 3.11621C399.987 3.46271 399.144 5.1078 398.108 6.51811C396.791 8.31087 394.27 10.9006 392.056 12.7347C391.433 13.2501 390.924 13.7259 390.924 13.7918C390.924 13.8575 391.412 14.2509 392.009 14.6656C392.606 15.0801 393.151 15.4202 393.222 15.4216C393.419 15.4216 395.251 13.8439 396.814 12.3202C399.685 9.52326 401.739 6.74799 402.501 4.63889C402.619 4.32004 402.728 3.72072 402.758 3.26357C402.828 2.16369 402.64 1.61312 401.971 0.959243C401.385 0.386698 400.65 0.101326 399.688 0.097037V0.0962691ZM380.369 0.114683C378.546 0.140864 377.365 1.0894 377.253 2.76334C377.178 3.88495 377.527 4.96711 378.5 6.62595C379.018 7.5097 380.304 9.24465 380.971 9.96194L381.366 10.3859L382.332 9.39672C382.862 8.8529 383.299 8.37404 383.302 8.3326C383.302 8.29132 383.024 7.91506 382.678 7.49668C381.184 5.68912 379.962 3.49397 380.222 3.08342C380.336 2.90226 381.197 3.01923 382.235 3.36006C384.963 4.253 389.01 6.79574 392.656 9.90692L393.279 10.439L394.295 9.44061L395.312 8.44222L394.637 7.82317C394.265 7.48277 393.412 6.77402 392.741 6.24793C388.956 3.28302 385.262 1.19698 382.39 0.402494C381.655 0.199188 380.977 0.105806 380.369 0.114683ZM404.077 0.207913C404.289 0.207913 404.458 0.275149 404.581 0.40782C404.703 0.542338 404.764 0.710005 404.764 0.914981C404.764 1.11979 404.703 1.28702 404.581 1.41951C404.458 1.55404 404.289 1.61943 404.077 1.61943C403.862 1.61943 403.693 1.55524 403.565 1.41951C403.437 1.285 403.376 1.11734 403.376 0.914981C403.376 0.712457 403.437 0.545265 403.565 0.410271C403.694 0.275801 403.862 0.207913 404.077 0.207913ZM404.114 0.427705C403.966 0.427705 403.843 0.472025 403.746 0.562207C403.649 0.652373 403.6 0.769474 403.6 0.914507C403.6 1.06277 403.647 1.17925 403.746 1.26666C403.843 1.35378 403.966 1.39659 404.114 1.39659C404.247 1.39659 404.37 1.3461 404.48 1.24176L404.334 1.10419C404.269 1.16838 404.195 1.19745 404.114 1.19745C404.028 1.19745 403.956 1.17294 403.897 1.12103C403.838 1.07054 403.811 1.00179 403.811 0.916174C403.811 0.82906 403.839 0.759559 403.897 0.706186C403.957 0.652646 404.027 0.62521 404.114 0.62521C404.196 0.62521 404.268 0.655663 404.332 0.712313L404.478 0.579346C404.373 0.479993 404.252 0.426316 404.114 0.426316V0.427705ZM362.91 4.60222C362.559 4.5777 362.201 4.697 361.961 4.93284C361.787 5.1045 361.693 5.28314 361.639 5.55124C361.517 6.15728 361.869 6.72726 362.462 6.88299C362.642 6.93038 362.965 6.93038 363.147 6.88299C363.469 6.80047 363.737 6.60025 363.873 6.33688C364.208 5.6922 363.918 4.91295 363.254 4.67238C363.143 4.63116 363.027 4.60832 362.91 4.60222ZM358.347 4.66951L358.328 6.9975L358.309 9.32537L358.228 9.21378C358.184 9.15264 358.074 9.03464 357.99 8.94981C357.588 8.55668 357.084 8.30221 356.435 8.16464C356.091 8.09126 355.281 8.08361 354.914 8.14621C354.191 8.27918 353.473 8.65291 353 9.14293C352.001 10.1768 351.59 11.8211 351.922 13.4495C352.22 14.9043 353.102 15.9709 354.37 16.408C354.573 16.4798 354.979 16.5687 355.19 16.5892C355.386 16.6106 355.994 16.6077 356.193 16.5708C357.092 16.4623 357.853 16.0715 358.3 15.485L358.459 15.2767L358.478 15.8386L358.497 16.4002H359.373H360.25V10.5262V4.65199H359.298L358.347 4.66951ZM332.361 5.06199C332.127 5.06199 331.896 5.08041 331.751 5.08651C330.689 5.20575 329.87 5.5637 329.23 6.18545C328.588 6.80846 328.295 7.50239 328.296 8.38936C328.296 9.84739 328.99 10.7457 330.498 11.2525C330.899 11.387 331.199 11.4631 332.152 11.6704C333.397 11.9411 333.886 12.1219 334.239 12.4407C334.514 12.6897 334.645 12.9855 334.645 13.3598C334.645 13.6196 334.609 13.7821 334.507 13.984C334.395 14.2093 334.249 14.3672 334.023 14.5113C333.624 14.766 333.153 14.8843 332.414 14.9156C331.23 14.9661 330.4 14.5852 330 13.8061C329.914 13.6381 329.814 13.298 329.793 13.1004L329.774 12.9417H328.803H327.831L327.85 13.0947C328.009 15.0652 329.297 16.3566 331.345 16.5987C331.691 16.6399 332.432 16.6477 332.807 16.6172C333.545 16.5499 334.138 16.3983 334.714 16.1292C335.166 15.9185 335.42 15.7442 335.751 15.4187C336.17 15.0061 336.399 14.6203 336.544 14.08C336.599 13.8804 336.612 13.7674 336.621 13.4067C336.64 13.1376 336.621 12.8968 336.602 12.7704C336.419 11.5108 335.683 10.7486 334.182 10.2652C333.793 10.1398 333.528 10.0728 332.382 9.81209C331.317 9.56938 330.886 9.39652 330.56 9.08089C330.313 8.8426 330.257 8.71297 330.242 8.3451C330.223 8.15584 330.242 8.04686 330.273 7.93115C330.443 7.29273 331.013 6.90433 331.927 6.80408C332.812 6.70778 333.542 6.90343 334.018 7.36641C334.367 7.70479 334.51 8.02914 334.585 8.64497L334.604 8.76116H335.558H336.513L336.494 8.51045C336.453 7.84575 336.224 7.1625 335.861 6.63182C335.697 6.3903 335.339 6.0284 335.074 5.83428C334.544 5.44481 333.791 5.17659 332.988 5.09115C332.833 5.07273 332.596 5.06663 332.363 5.06663L332.361 5.06199ZM338.854 6.18695V7.23944V8.2918H338.215H337.577V9.0383V9.78466H338.215H338.854V13.1012V16.4177H339.819H340.784V13.1012V9.78466H341.473H342.162V9.0383V8.2918H341.473H340.784V7.23944V6.18695H339.819H338.854ZM386.791 6.66415L386.036 7.25395C384.921 8.12594 381.64 11.3568 380.607 12.6002C379.073 14.446 378.027 16.1039 377.515 17.4981C377.194 18.3726 377.182 19.9107 377.49 20.4756C377.784 21.0126 378.605 21.708 379.145 21.8771C379.848 22.0978 381.497 22.0116 382.581 21.6961C383.632 21.3909 385.356 20.6601 386.535 20.0206C387.726 19.3741 389.09 18.5328 389.09 18.4446C389.09 18.3865 388.021 17.5757 386.866 16.7592C386.71 16.6491 386.618 16.6736 386.129 16.9573C384.408 17.9596 382.796 18.6708 381.478 19.0092C380.235 19.3287 380.058 19.2529 380.286 18.4999C380.577 17.5427 381.241 16.4677 382.591 14.7706C383.596 13.5068 386.464 10.645 387.981 9.39261C388.565 8.911 389.057 8.45732 389.075 8.38489C389.111 8.23354 389.1 8.2244 387.771 7.32733L386.791 6.66415ZM369.455 8.10015C369.376 8.10015 369.298 8.10042 369.218 8.10015C368.317 8.13232 367.638 8.33982 366.921 8.80597C366.589 9.02254 366.148 9.44442 365.903 9.78159C365.694 10.0689 365.437 10.5665 365.322 10.9075C364.846 12.3213 365.097 13.8892 365.983 15.0384C366.191 15.3075 366.63 15.7116 366.927 15.9063C367.471 16.2636 368.117 16.4954 368.817 16.5839C369.054 16.613 369.724 16.616 369.969 16.5839C371.888 16.352 373.272 15.0929 373.657 13.2294C373.708 12.9846 373.715 12.8781 373.715 12.3629C373.715 11.8442 373.696 11.7426 373.655 11.4939C373.461 10.5581 373.061 9.83171 372.392 9.20291C371.623 8.47979 370.624 8.10427 369.454 8.09616L369.455 8.10015ZM361.858 8.2918V12.3549V16.4177H362.81H363.762V12.3549V8.2918H362.81H361.858ZM343.245 8.29193V10.8384C343.245 12.4715 343.264 13.4699 343.272 13.6225C343.428 15.0252 344.117 15.9649 345.288 16.3757C345.51 16.4521 345.976 16.5568 346.239 16.5854C346.526 16.6176 347.264 16.6189 347.55 16.5854C349.228 16.4043 350.215 15.5175 350.516 13.9188C350.573 13.6141 350.573 13.6037 350.58 10.9512L350.599 8.2895H349.645H348.692L348.692 10.6331C348.692 11.9219 348.673 13.1178 348.667 13.29C348.639 13.6844 348.592 13.8733 348.452 14.1542C348.189 14.6915 347.7 14.9481 346.938 14.9508C345.873 14.9508 345.304 14.457 345.185 13.4212C345.167 13.2698 345.159 12.3132 345.159 10.7381V8.2895H344.206L343.245 8.29193ZM356.091 9.75623C357.161 9.75623 357.965 10.3601 358.279 11.4003C358.384 11.751 358.409 11.9282 358.409 12.3549C358.409 12.8133 358.381 13.0117 358.254 13.3822C357.991 14.1719 357.436 14.7034 356.682 14.8871C355.444 15.1891 354.312 14.5658 353.912 13.3625C353.795 13.0099 353.773 12.8446 353.773 12.3549C353.773 11.8626 353.796 11.7003 353.914 11.3392C354.094 10.7959 354.417 10.3699 354.862 10.0888C355.228 9.85786 355.602 9.75623 356.089 9.75623H356.091ZM369.379 9.75623C369.86 9.75623 370.234 9.84638 370.611 10.0561C370.837 10.1814 371.154 10.4637 371.311 10.679C371.466 10.892 371.633 11.2469 371.706 11.5222C371.944 12.4177 371.781 13.4072 371.285 14.0656C371.18 14.2062 370.894 14.4751 370.745 14.5733C370.074 15.0179 369.571 15.0351 368.755 14.8769C368.192 14.7255 367.702 14.3627 367.408 13.8789C367.261 13.6353 367.181 13.4419 367.094 13.1161C367.028 12.8752 367.025 12.8199 367.025 12.3783C367.025 12.0029 367.044 11.8567 367.071 11.6931C367.339 10.4929 368.216 9.75761 369.379 9.75623ZM386.732 11.7539C386.63 11.7539 384.752 13.6283 384.752 13.7325C384.752 13.9248 388.194 16.6584 389.875 17.801C392.946 19.8889 395.55 21.1968 397.818 21.7914C398.523 21.9761 398.875 22.0143 399.698 21.9942C400.581 21.9714 400.781 21.9361 401.261 21.7064C402.981 20.8837 403.267 18.8047 401.998 16.3373C401.348 15.0744 400.581 14.0053 398.868 11.9725C398.809 11.9037 398.723 11.8456 398.677 11.8456C398.555 11.8456 396.709 13.6604 396.709 13.7811C396.709 13.8377 397.02 14.2621 397.401 14.725C398.869 16.5104 400.02 18.5667 399.826 19.0601C399.685 19.4213 397.72 18.8902 395.889 17.9956C393.214 16.6886 390.503 14.8803 387.886 12.6574C387.302 12.1619 386.783 11.7553 386.732 11.7539ZM374.316 13.901V15.7906H376.251V13.901H374.316Z" fill="#7C7C7C"/>
<path d="M158.873 17.9126C157.973 17.8107 156.96 17.5961 156.256 17.3581C156.046 17.2873 156.008 17.2549 156.029 17.1683C156.043 17.1109 156.164 16.4406 156.298 15.6787C156.432 14.9169 156.548 14.287 156.556 14.2791C156.564 14.2712 156.71 14.3251 156.881 14.3989C157.668 14.7393 158.498 14.9887 159.166 15.0854C159.755 15.1708 161.021 15.1749 161.396 15.0927C162.838 14.7766 163.304 13.7296 162.344 12.9652C162.171 12.8277 161.596 12.507 160.984 12.2066C159.631 11.5421 159.14 11.2295 158.576 10.6746C157.836 9.94471 157.533 9.18352 157.602 8.22709C157.639 7.71913 157.861 7.03306 158.139 6.56942C158.523 5.92914 159.338 5.22025 160.134 4.83421C161.32 4.2592 162.583 4.02212 164.234 4.06468C165.324 4.09278 165.865 4.16879 166.743 4.41693C167.391 4.59987 167.355 4.53978 167.228 5.23069C167.184 5.47069 167.077 6.07008 166.99 6.56266C166.903 7.05524 166.823 7.46728 166.812 7.47829C166.801 7.48932 166.713 7.46255 166.616 7.41887C165.797 7.04707 164.896 6.86457 163.84 6.85627C163.126 6.85064 162.977 6.86446 162.637 6.9678C162.012 7.15795 161.66 7.42964 161.527 7.82466C161.41 8.17055 161.591 8.51351 162.074 8.86161C162.25 8.98863 162.867 9.32396 163.445 9.60678C164.023 9.88961 164.686 10.243 164.917 10.3922C165.772 10.9434 166.307 11.5458 166.61 12.2967C166.739 12.6172 166.752 12.7114 166.753 13.342C166.753 13.9069 166.732 14.109 166.636 14.435C166.199 15.9274 165.048 16.9817 163.235 17.551C162.29 17.8478 161.79 17.917 160.45 17.9366C159.785 17.9463 159.075 17.9355 158.873 17.9126ZM166.573 17.7387C166.573 17.7145 166.972 16.8135 167.46 15.7365C167.949 14.6595 169.213 11.8665 170.271 9.52976C171.329 7.19302 172.234 5.21781 172.283 5.1404C172.417 4.92961 172.674 4.67226 172.868 4.55493C173.254 4.32062 173.491 4.29388 175.302 4.27939L177.016 4.26568L177.369 5.8391C177.563 6.70449 177.755 7.55114 177.795 7.72055C177.836 7.88996 178.119 9.13747 178.424 10.4928C179.304 14.3995 179.447 15.0329 179.765 16.4222C179.93 17.1423 180.056 17.7409 180.046 17.7526C180.036 17.7643 179.253 17.7732 178.306 17.7723L176.585 17.7707L176.467 17.2376C176.402 16.9444 176.3 16.4908 176.239 16.2297L176.129 15.7548H173.699H171.269L171.049 16.3323C170.928 16.65 170.752 17.1046 170.656 17.3426L170.483 17.7753L168.528 17.779C167.452 17.7812 166.573 17.7629 166.573 17.7387ZM175.507 12.9505C175.507 12.9328 175.461 12.7191 175.405 12.4756C175.219 11.6766 174.936 10.4106 174.669 9.18899C174.524 8.52839 174.394 7.97641 174.379 7.96238C174.365 7.94835 174.337 7.98059 174.318 8.03406C174.282 8.13076 173.298 10.6384 172.95 11.5195C172.71 12.1267 172.537 12.5531 172.435 12.7901L172.352 12.9826H173.93C174.797 12.9826 175.507 12.9681 175.507 12.9505ZM140.743 17.6934C140.731 17.6578 140.604 17.2128 140.459 16.7046C140.092 15.4112 138.714 10.5879 138.378 9.41468C138.224 8.87821 138.01 8.1274 137.903 7.74622C137.499 6.31294 137.455 6.18473 137.31 6.03306C137.001 5.70987 134.794 4.83525 133.712 4.60737C133.482 4.55903 133.462 4.5425 133.462 4.40286V4.25094L136.76 4.267C139.837 4.28199 140.076 4.28954 140.321 4.37967C140.789 4.55185 141.119 4.8773 141.246 5.29302C141.292 5.44518 141.559 6.67084 141.974 8.64461C142.057 9.03991 142.209 9.75607 142.311 10.2361C142.849 12.7679 142.975 13.372 142.975 13.4164C142.975 13.5366 143.082 13.3283 143.29 12.8029C143.413 12.4923 143.686 11.8108 143.896 11.2885C144.106 10.7661 144.411 10.0038 144.575 9.59435C144.738 9.18493 145.034 8.44568 145.233 7.95156C145.432 7.45744 145.751 6.66041 145.943 6.18041C146.135 5.7004 146.388 5.07088 146.505 4.78147L146.718 4.25527H148.71H150.702L150.63 4.42211C150.467 4.79717 148.632 8.96794 148.546 9.15798C148.494 9.27092 147.95 10.5069 147.337 11.9045C146.723 13.3022 146.189 14.515 146.15 14.5997C146.111 14.6845 145.785 15.4237 145.425 16.2425L144.77 17.7313L142.768 17.7448C141.192 17.7553 140.76 17.7444 140.743 17.6934ZM149.889 17.5018C149.906 17.4022 149.953 17.1358 149.994 16.9099C150.073 16.4746 150.233 15.5562 150.618 13.342C151.02 11.0277 151.223 9.8598 151.384 8.95265C151.469 8.47265 151.669 7.31756 151.83 6.38579C151.99 5.45401 152.146 4.57036 152.177 4.42212L152.232 4.15261H154.094C155.744 4.15261 155.956 4.16171 155.956 4.23244C155.956 4.27635 155.86 4.85968 155.742 5.52871C155.625 6.19775 155.485 6.99926 155.431 7.30985C155.378 7.62044 155.164 8.84483 154.957 10.0307C154.75 11.2166 154.478 12.776 154.352 13.496C154.227 14.216 154.013 15.4404 153.878 16.2169C153.742 16.9934 153.622 17.6387 153.61 17.6509C153.599 17.6632 152.75 17.6754 151.724 17.6781L149.859 17.6829L149.889 17.5018Z" fill="#7C7C7C"/>
</g>
<defs>
<clipPath id="clip0_6_65">
<rect width="405" height="22" fill="white"/>
</clipPath>
</defs>
</svg>
